<svg xmlns="http://www.w3.org/2000/svg" viewBox="0 0 301.5 179.4"><title>Fichier 3</title><g id="Calque_2" data-name="Calque 2"><g id="Calque_2-2" data-name="Calque 2"><path d="M11.09,28.19H0V43H11.06L11,71q0,10.26,3.1,16.26a17.83,17.83,0,0,0,9.67,8.59q6.59,2.59,17.29,2.59H51V81.59H40c-3.21,0-5.68-.86-7.41-2.6S30,74.73,30,71.43V43H50V28.19H30V9.4H11.13Z" style="fill:#fff"/><polygon points="58 28.41 58 43.41 67 43.41 67 98.41 88 98.41 88 43.41 88 28.41 67 28.41 58 28.41" style="fill:#fff"/><path d="M75.56,21.38c3.84,0,6.68-1,8.51-3a10.85,10.85,0,0,0,2.76-7.62A11,11,0,0,0,84.07,3q-2.75-3-8.51-3T67.05,3a11,11,0,0,0-2.75,7.74,10.84,10.84,0,0,0,2.75,7.62C68.88,20.37,71.72,21.38,75.56,21.38Z" style="fill:#fff"/><path d="M237.31,37a33.82,33.82,0,0,0-6.93,11A35.36,35.36,0,0,0,228,60.92v2.44a35.05,35.05,0,0,0,9.37,23.78,32.91,32.91,0,0,0,11.49,7.93A40.21,40.21,0,0,0,264.72,98a38.61,38.61,0,0,0,15.66-3,31.13,31.13,0,0,0,11.3-8.23,27.63,27.63,0,0,0,6-12H278.84A10.87,10.87,0,0,1,274,80,18.32,18.32,0,0,1,264.72,82q-6.17,0-10-2.44a14.12,14.12,0,0,1-5.65-6.89A23.53,23.53,0,0,1,247.73,68H299V60.68a35.45,35.45,0,0,0-4.11-16.89A32.66,32.66,0,0,0,283,31.22Q275.25,26.41,264,26.4a38.85,38.85,0,0,0-15.34,2.87A32.62,32.62,0,0,0,237.31,37Zm17.52,7.62A17.35,17.35,0,0,1,264,42.38a16,16,0,0,1,8.79,2.26A13.55,13.55,0,0,1,278,51.1a21.88,21.88,0,0,1,1.35,5.06H247.77a22.21,22.21,0,0,1,1.41-4.81A14.15,14.15,0,0,1,254.83,44.64Z" style="fill:#fff"/><path d="M291.69,118.43a32.6,32.6,0,0,0-11.3-7.68,39,39,0,0,0-15.34-2.85q-11.3,0-19.07,4.78a32.52,32.52,0,0,0-11.87,12.46A35,35,0,0,0,230,141.89v7.22h51.27a23.33,23.33,0,0,1-1.33,4.7,14.06,14.06,0,0,1-5.65,6.83,18.57,18.57,0,0,1-10,2.42A18.32,18.32,0,0,1,255,161a10.8,10.8,0,0,1-4.88-5.08H231.28a27.3,27.3,0,0,0,6,11.86,31,31,0,0,0,11.3,8.16,38.78,38.78,0,0,0,15.66,3,40.39,40.39,0,0,0,15.86-2.9,32.88,32.88,0,0,0,11.49-7.86A34.62,34.62,0,0,0,301,144.55v-2.42a34.82,34.82,0,0,0-2.38-12.76A33.43,33.43,0,0,0,291.69,118.43ZM256.26,126a16.12,16.12,0,0,1,8.79-2.24,17.44,17.44,0,0,1,9.12,2.24,14.09,14.09,0,0,1,5.65,6.65,21.93,21.93,0,0,1,1.41,4.78H249.64a21.4,21.4,0,0,1,1.35-5A13.47,13.47,0,0,1,256.26,126Z" style="fill:none;stroke:#fff;stroke-miterlimit:10"/><path d="M217,139.08q0-16-6.44-23.82T191.9,107.4h-1.41a25.07,25.07,0,0,0-13.59,3.51l-.05,0a3.17,3.17,0,0,1-4.85-2.68V57.7a14.06,14.06,0,0,1,3.16-9.54,10.77,10.77,0,0,1,8.59-3.64q5.43,0,8.34,3.58A14.16,14.16,0,0,1,195,57.32v38a3.12,3.12,0,0,0,3.12,3.11H215V58.65q0-10.71-2.8-17.85A22.33,22.33,0,0,0,204,30a23.39,23.39,0,0,0-13.32-3.64H189A22.67,22.67,0,0,0,176,30a22,22,0,0,0-8,10.69c-.09.23-.16.48-.25.72-.08-.24-.16-.49-.25-.72a22.15,22.15,0,0,0-8-10.69A22.61,22.61,0,0,0,146.4,26.4h-.89a22.67,22.67,0,0,0-13,3.61,21.55,21.55,0,0,0-8,10.69A35.61,35.61,0,0,0,123,46.06V28.4H110.12A3.12,3.12,0,0,0,107,31.52V95.29a3.12,3.12,0,0,0,3.12,3.11H128V57.7a14.15,14.15,0,0,1,3.14-9.54,10.85,10.85,0,0,1,8.67-3.64,10.09,10.09,0,0,1,8.24,3.58A14.06,14.06,0,0,1,151,57.32v119a3.12,3.12,0,0,0,3.12,3.11H172V134.29a3,3,0,0,1,.27-1.28,11.23,11.23,0,0,1,2.26-3.22,12.52,12.52,0,0,1,9.29-3.54,11.64,11.64,0,0,1,8.91,3.48,12.61,12.61,0,0,1,3.27,9v37.54a3.12,3.12,0,0,0,3.12,3.11H217" style="fill:#fff"/></g></g></svg>